<?xml version="1.0" standalone="no"?>
<!DOCTYPE svg PUBLIC "-//W3C//DTD SVG 20010904//EN"
 "http://www.w3.org/TR/2001/REC-SVG-20010904/DTD/svg10.dtd">
<svg version="1.0" xmlns="http://www.w3.org/2000/svg"
 width="16.000000pt" height="16.000000pt" viewBox="0 0 16.000000 16.000000"
 preserveAspectRatio="xMidYMid meet">
<metadata>
Created by potrace 1.11, written by Peter Selinger 2001-2013
</metadata>
<g transform="translate(0.000000,16.000000) scale(0.006154,-0.006154)"
fill="#000000" stroke="none">
<path d="M1132 2590 c-557 -79 -988 -483 -1108 -1041 -26 -118 -26 -380 0
-498 59 -273 167 -473 361 -666 193 -194 393 -302 666 -361 118 -26 380 -26
498 0 273 59 473 167 666 361 194 193 302 393 361 666 14 62 18 127 18 249 0
122 -4 187 -18 249 -59 273 -167 473 -361 666 -190 190 -383 297 -645 356 -98
22 -340 33 -438 19z m-284 -942 c161 -75 190 -433 45 -570 -76 -73 -223 -78
-303 -12 l-30 26 0 -151 0 -151 -55 0 -55 0 0 435 0 435 50 0 c46 0 50 -2 50
-24 0 -31 14 -40 31 -20 31 37 123 65 189 56 19 -2 55 -13 78 -24z m399 -213
c40 -121 76 -227 79 -235 4 -9 40 87 83 220 l77 235 56 3 56 3 -112 -313 -113
-313 -43 0 -43 0 -88 245 c-49 135 -100 276 -114 313 l-25 68 57 -3 56 -3 74
-220z m913 190 c0 -31 -25 -69 -176 -268 l-176 -232 181 -3 181 -2 0 -45 0
-45 -250 0 -250 0 0 38 c0 35 19 64 170 265 94 125 170 229 170 232 0 3 -74 5
-165 5 l-165 0 0 45 0 45 240 0 240 0 0 -35z"/>
<path d="M624 1561 c-60 -37 -64 -50 -64 -217 0 -140 2 -153 22 -179 45 -57
148 -73 209 -32 19 12 45 44 59 72 21 43 25 64 25 145 0 83 -3 101 -25 140
-35 62 -80 90 -144 90 -33 0 -62 -7 -82 -19z"/>
</g>
</svg>
